solid Exported from Blender-3.2.0
facet normal -0.102381 -0.943523 -0.315090
outer loop
vertex 0.000000 -1.000000 0.000000
vertex -0.425323 -0.850654 -0.309011
vertex 0.162456 -0.850654 -0.499995
endloop
endfacet
facet normal -0.700224 -0.661699 -0.268032
outer loop
vertex -0.723607 -0.447220 -0.525725
vertex -0.425323 -0.850654 -0.309011
vertex -0.850648 -0.525736 0.000000
endloop
endfacet
facet normal 0.268034 -0.943523 -0.194737
outer loop
vertex 0.000000 -1.000000 0.000000
vertex 0.162456 -0.850654 -0.499995
vertex 0.525730 -0.850652 0.000000
endloop
endfacet
facet normal 0.268034 -0.943523 0.194737
outer loop
vertex 0.000000 -1.000000 0.000000
vertex 0.525730 -0.850652 0.000000
vertex 0.162456 -0.850654 0.499995
endloop
endfacet
facet normal -0.102381 -0.943523 0.315090
outer loop
vertex 0.000000 -1.000000 0.000000
vertex 0.162456 -0.850654 0.499995
vertex -0.425323 -0.850654 0.309011
endloop
endfacet
facet normal -0.904989 -0.330385 -0.268032
outer loop
vertex -0.723607 -0.447220 -0.525725
vertex -0.850648 -0.525736 0.000000
vertex -0.951058 0.000000 -0.309013
endloop
endfacet
facet normal -0.024747 -0.330386 -0.943521
outer loop
vertex 0.276388 -0.447220 -0.850649
vertex -0.262869 -0.525738 -0.809012
vertex 0.000000 0.000000 -1.000000
endloop
endfacet
facet normal 0.889697 -0.330385 -0.315095
outer loop
vertex 0.894426 -0.447216 0.000000
vertex 0.688189 -0.525736 -0.499997
vertex 0.951058 0.000000 -0.309013
endloop
endfacet
facet normal 0.574602 -0.330388 0.748784
outer loop
vertex 0.276388 -0.447220 0.850649
vertex 0.688189 -0.525736 0.499997
vertex 0.587786 0.000000 0.809017
endloop
endfacet
facet normal -0.534576 -0.330387 0.777865
outer loop
vertex -0.723607 -0.447220 0.525725
vertex -0.262869 -0.525738 0.809012
vertex -0.587786 0.000000 0.809017
endloop
endfacet
facet normal -0.802609 -0.125627 -0.583126
outer loop
vertex -0.723607 -0.447220 -0.525725
vertex -0.951058 0.000000 -0.309013
vertex -0.587786 0.000000 -0.809017
endloop
endfacet
facet normal 0.306569 -0.125629 -0.943522
outer loop
vertex 0.276388 -0.447220 -0.850649
vertex 0.000000 0.000000 -1.000000
vertex 0.587786 0.000000 -0.809017
endloop
endfacet
facet normal 0.992077 -0.125628 0.000000
outer loop
vertex 0.894426 -0.447216 0.000000
vertex 0.951058 0.000000 -0.309013
vertex 0.951058 0.000000 0.309013
endloop
endfacet
facet normal 0.306569 -0.125629 0.943522
outer loop
vertex 0.276388 -0.447220 0.850649
vertex 0.587786 0.000000 0.809017
vertex 0.000000 0.000000 1.000000
endloop
endfacet
facet normal -0.802609 -0.125627 0.583126
outer loop
vertex -0.723607 -0.447220 0.525725
vertex -0.587786 0.000000 0.809017
vertex -0.951058 0.000000 0.309013
endloop
endfacet
facet normal -0.408946 0.661698 -0.628425
outer loop
vertex -0.276388 0.447220 -0.850649
vertex -0.688189 0.525736 -0.499997
vertex -0.162456 0.850654 -0.499995
endloop
endfacet
facet normal 0.471300 0.661698 -0.583122
outer loop
vertex 0.723607 0.447220 -0.525725
vertex 0.262869 0.525738 -0.809012
vertex 0.425323 0.850654 -0.309011
endloop
endfacet
facet normal 0.700224 0.661699 0.268032
outer loop
vertex 0.723607 0.447220 0.525725
vertex 0.850648 0.525736 0.000000
vertex 0.425323 0.850654 0.309011
endloop
endfacet
facet normal -0.038530 0.661699 0.748779
outer loop
vertex -0.276388 0.447220 0.850649
vertex 0.262869 0.525738 0.809012
vertex -0.162456 0.850654 0.499995
endloop
endfacet
facet normal -0.724042 0.661695 0.194736
outer loop
vertex -0.894426 0.447216 0.000000
vertex -0.688189 0.525736 0.499997
vertex -0.525730 0.850652 0.000000
endloop
endfacet
facet normal -0.268034 0.943523 0.194737
outer loop
vertex -0.525730 0.850652 0.000000
vertex -0.162456 0.850654 0.499995
vertex 0.000000 1.000000 0.000000
endloop
endfacet
facet normal -0.491119 0.794657 0.356821
outer loop
vertex -0.525730 0.850652 0.000000
vertex -0.688189 0.525736 0.499997
vertex -0.162456 0.850654 0.499995
endloop
endfacet
facet normal -0.408946 0.661699 0.628425
outer loop
vertex -0.688189 0.525736 0.499997
vertex -0.276388 0.447220 0.850649
vertex -0.162456 0.850654 0.499995
endloop
endfacet
facet normal 0.102381 0.943523 0.315090
outer loop
vertex -0.162456 0.850654 0.499995
vertex 0.425323 0.850654 0.309011
vertex 0.000000 1.000000 0.000000
endloop
endfacet
facet normal 0.187594 0.794658 0.577345
outer loop
vertex -0.162456 0.850654 0.499995
vertex 0.262869 0.525738 0.809012
vertex 0.425323 0.850654 0.309011
endloop
endfacet
facet normal 0.471300 0.661699 0.583122
outer loop
vertex 0.262869 0.525738 0.809012
vertex 0.723607 0.447220 0.525725
vertex 0.425323 0.850654 0.309011
endloop
endfacet
facet normal 0.331305 0.943524 0.000000
outer loop
vertex 0.425323 0.850654 0.309011
vertex 0.425323 0.850654 -0.309011
vertex 0.000000 1.000000 0.000000
endloop
endfacet
facet normal 0.607060 0.794656 0.000000
outer loop
vertex 0.425323 0.850654 0.309011
vertex 0.850648 0.525736 0.000000
vertex 0.425323 0.850654 -0.309011
endloop
endfacet
facet normal 0.700224 0.661699 -0.268032
outer loop
vertex 0.850648 0.525736 0.000000
vertex 0.723607 0.447220 -0.525725
vertex 0.425323 0.850654 -0.309011
endloop
endfacet
facet normal 0.102381 0.943523 -0.315090
outer loop
vertex 0.425323 0.850654 -0.309011
vertex -0.162456 0.850654 -0.499995
vertex 0.000000 1.000000 0.000000
endloop
endfacet
facet normal 0.187594 0.794658 -0.577345
outer loop
vertex 0.425323 0.850654 -0.309011
vertex 0.262869 0.525738 -0.809012
vertex -0.162456 0.850654 -0.499995
endloop
endfacet
facet normal -0.038530 0.661699 -0.748779
outer loop
vertex 0.262869 0.525738 -0.809012
vertex -0.276388 0.447220 -0.850649
vertex -0.162456 0.850654 -0.499995
endloop
endfacet
facet normal -0.268034 0.943523 -0.194737
outer loop
vertex -0.162456 0.850654 -0.499995
vertex -0.525730 0.850652 0.000000
vertex 0.000000 1.000000 0.000000
endloop
endfacet
facet normal -0.491119 0.794657 -0.356821
outer loop
vertex -0.162456 0.850654 -0.499995
vertex -0.688189 0.525736 -0.499997
vertex -0.525730 0.850652 0.000000
endloop
endfacet
facet normal -0.724042 0.661695 -0.194736
outer loop
vertex -0.688189 0.525736 -0.499997
vertex -0.894426 0.447216 0.000000
vertex -0.525730 0.850652 0.000000
endloop
endfacet
facet normal -0.889697 0.330385 0.315095
outer loop
vertex -0.951058 0.000000 0.309013
vertex -0.688189 0.525736 0.499997
vertex -0.894426 0.447216 0.000000
endloop
endfacet
facet normal -0.794656 0.187595 0.577348
outer loop
vertex -0.951058 0.000000 0.309013
vertex -0.587786 0.000000 0.809017
vertex -0.688189 0.525736 0.499997
endloop
endfacet
facet normal -0.574602 0.330388 0.748784
outer loop
vertex -0.587786 0.000000 0.809017
vertex -0.276388 0.447220 0.850649
vertex -0.688189 0.525736 0.499997
endloop
endfacet
facet normal 0.024747 0.330386 0.943521
outer loop
vertex 0.000000 0.000000 1.000000
vertex 0.262869 0.525738 0.809012
vertex -0.276388 0.447220 0.850649
endloop
endfacet
facet normal 0.303531 0.187597 0.934171
outer loop
vertex 0.000000 0.000000 1.000000
vertex 0.587786 0.000000 0.809017
vertex 0.262869 0.525738 0.809012
endloop
endfacet
facet normal 0.534576 0.330386 0.777865
outer loop
vertex 0.587786 0.000000 0.809017
vertex 0.723607 0.447220 0.525725
vertex 0.262869 0.525738 0.809012
endloop
endfacet
facet normal 0.904989 0.330385 0.268032
outer loop
vertex 0.951058 0.000000 0.309013
vertex 0.850648 0.525736 0.000000
vertex 0.723607 0.447220 0.525725
endloop
endfacet
facet normal 0.982246 0.187598 0.000000
outer loop
vertex 0.951058 0.000000 0.309013
vertex 0.951058 0.000000 -0.309013
vertex 0.850648 0.525736 0.000000
endloop
endfacet
facet normal 0.904989 0.330385 -0.268032
outer loop
vertex 0.951058 0.000000 -0.309013
vertex 0.723607 0.447220 -0.525725
vertex 0.850648 0.525736 0.000000
endloop
endfacet
facet normal 0.534576 0.330386 -0.777865
outer loop
vertex 0.587786 0.000000 -0.809017
vertex 0.262869 0.525738 -0.809012
vertex 0.723607 0.447220 -0.525725
endloop
endfacet
facet normal 0.303531 0.187597 -0.934171
outer loop
vertex 0.587786 0.000000 -0.809017
vertex 0.000000 0.000000 -1.000000
vertex 0.262869 0.525738 -0.809012
endloop
endfacet
facet normal 0.024747 0.330386 -0.943521
outer loop
vertex 0.000000 0.000000 -1.000000
vertex -0.276388 0.447220 -0.850649
vertex 0.262869 0.525738 -0.809012
endloop
endfacet
facet normal -0.574602 0.330388 -0.748784
outer loop
vertex -0.587786 0.000000 -0.809017
vertex -0.688189 0.525736 -0.499997
vertex -0.276388 0.447220 -0.850649
endloop
endfacet
facet normal -0.794656 0.187595 -0.577348
outer loop
vertex -0.587786 0.000000 -0.809017
vertex -0.951058 0.000000 -0.309013
vertex -0.688189 0.525736 -0.499997
endloop
endfacet
facet normal -0.889697 0.330385 -0.315095
outer loop
vertex -0.951058 0.000000 -0.309013
vertex -0.894426 0.447216 0.000000
vertex -0.688189 0.525736 -0.499997
endloop
endfacet
facet normal -0.306569 0.125629 0.943522
outer loop
vertex -0.587786 0.000000 0.809017
vertex 0.000000 0.000000 1.000000
vertex -0.276388 0.447220 0.850649
endloop
endfacet
facet normal -0.303531 -0.187597 0.934171
outer loop
vertex -0.587786 0.000000 0.809017
vertex -0.262869 -0.525738 0.809012
vertex 0.000000 0.000000 1.000000
endloop
endfacet
facet normal -0.024747 -0.330386 0.943521
outer loop
vertex -0.262869 -0.525738 0.809012
vertex 0.276388 -0.447220 0.850649
vertex 0.000000 0.000000 1.000000
endloop
endfacet
facet normal 0.802609 0.125627 0.583126
outer loop
vertex 0.587786 0.000000 0.809017
vertex 0.951058 0.000000 0.309013
vertex 0.723607 0.447220 0.525725
endloop
endfacet
facet normal 0.794656 -0.187595 0.577348
outer loop
vertex 0.587786 0.000000 0.809017
vertex 0.688189 -0.525736 0.499997
vertex 0.951058 0.000000 0.309013
endloop
endfacet
facet normal 0.889697 -0.330385 0.315095
outer loop
vertex 0.688189 -0.525736 0.499997
vertex 0.894426 -0.447216 0.000000
vertex 0.951058 0.000000 0.309013
endloop
endfacet
facet normal 0.802609 0.125627 -0.583126
outer loop
vertex 0.951058 0.000000 -0.309013
vertex 0.587786 0.000000 -0.809017
vertex 0.723607 0.447220 -0.525725
endloop
endfacet
facet normal 0.794656 -0.187595 -0.577348
outer loop
vertex 0.951058 0.000000 -0.309013
vertex 0.688189 -0.525736 -0.499997
vertex 0.587786 0.000000 -0.809017
endloop
endfacet
facet normal 0.574602 -0.330388 -0.748784
outer loop
vertex 0.688189 -0.525736 -0.499997
vertex 0.276388 -0.447220 -0.850649
vertex 0.587786 0.000000 -0.809017
endloop
endfacet
facet normal -0.306569 0.125629 -0.943522
outer loop
vertex 0.000000 0.000000 -1.000000
vertex -0.587786 0.000000 -0.809017
vertex -0.276388 0.447220 -0.850649
endloop
endfacet
facet normal -0.303531 -0.187597 -0.934171
outer loop
vertex 0.000000 0.000000 -1.000000
vertex -0.262869 -0.525738 -0.809012
vertex -0.587786 0.000000 -0.809017
endloop
endfacet
facet normal -0.534576 -0.330386 -0.777865
outer loop
vertex -0.262869 -0.525738 -0.809012
vertex -0.723607 -0.447220 -0.525725
vertex -0.587786 0.000000 -0.809017
endloop
endfacet
facet normal -0.992077 0.125628 0.000000
outer loop
vertex -0.951058 0.000000 -0.309013
vertex -0.951058 0.000000 0.309013
vertex -0.894426 0.447216 0.000000
endloop
endfacet
facet normal -0.982246 -0.187598 0.000000
outer loop
vertex -0.951058 0.000000 -0.309013
vertex -0.850648 -0.525736 0.000000
vertex -0.951058 0.000000 0.309013
endloop
endfacet
facet normal -0.904989 -0.330385 0.268032
outer loop
vertex -0.850648 -0.525736 0.000000
vertex -0.723607 -0.447220 0.525725
vertex -0.951058 0.000000 0.309013
endloop
endfacet
facet normal -0.471300 -0.661699 0.583122
outer loop
vertex -0.425323 -0.850654 0.309011
vertex -0.262869 -0.525738 0.809012
vertex -0.723607 -0.447220 0.525725
endloop
endfacet
facet normal -0.187594 -0.794658 0.577345
outer loop
vertex -0.425323 -0.850654 0.309011
vertex 0.162456 -0.850654 0.499995
vertex -0.262869 -0.525738 0.809012
endloop
endfacet
facet normal 0.038531 -0.661699 0.748779
outer loop
vertex 0.162456 -0.850654 0.499995
vertex 0.276388 -0.447220 0.850649
vertex -0.262869 -0.525738 0.809012
endloop
endfacet
facet normal 0.408946 -0.661698 0.628425
outer loop
vertex 0.162456 -0.850654 0.499995
vertex 0.688189 -0.525736 0.499997
vertex 0.276388 -0.447220 0.850649
endloop
endfacet
facet normal 0.491120 -0.794657 0.356821
outer loop
vertex 0.162456 -0.850654 0.499995
vertex 0.525730 -0.850652 0.000000
vertex 0.688189 -0.525736 0.499997
endloop
endfacet
facet normal 0.724042 -0.661695 0.194736
outer loop
vertex 0.525730 -0.850652 0.000000
vertex 0.894426 -0.447216 0.000000
vertex 0.688189 -0.525736 0.499997
endloop
endfacet
facet normal 0.724042 -0.661695 -0.194736
outer loop
vertex 0.525730 -0.850652 0.000000
vertex 0.688189 -0.525736 -0.499997
vertex 0.894426 -0.447216 0.000000
endloop
endfacet
facet normal 0.491120 -0.794657 -0.356821
outer loop
vertex 0.525730 -0.850652 0.000000
vertex 0.162456 -0.850654 -0.499995
vertex 0.688189 -0.525736 -0.499997
endloop
endfacet
facet normal 0.408946 -0.661698 -0.628425
outer loop
vertex 0.162456 -0.850654 -0.499995
vertex 0.276388 -0.447220 -0.850649
vertex 0.688189 -0.525736 -0.499997
endloop
endfacet
facet normal -0.700224 -0.661699 0.268032
outer loop
vertex -0.850648 -0.525736 0.000000
vertex -0.425323 -0.850654 0.309011
vertex -0.723607 -0.447220 0.525725
endloop
endfacet
facet normal -0.607060 -0.794656 0.000000
outer loop
vertex -0.850648 -0.525736 0.000000
vertex -0.425323 -0.850654 -0.309011
vertex -0.425323 -0.850654 0.309011
endloop
endfacet
facet normal -0.331305 -0.943524 0.000000
outer loop
vertex -0.425323 -0.850654 -0.309011
vertex 0.000000 -1.000000 0.000000
vertex -0.425323 -0.850654 0.309011
endloop
endfacet
facet normal 0.038531 -0.661699 -0.748779
outer loop
vertex 0.162456 -0.850654 -0.499995
vertex -0.262869 -0.525738 -0.809012
vertex 0.276388 -0.447220 -0.850649
endloop
endfacet
facet normal -0.187594 -0.794658 -0.577345
outer loop
vertex 0.162456 -0.850654 -0.499995
vertex -0.425323 -0.850654 -0.309011
vertex -0.262869 -0.525738 -0.809012
endloop
endfacet
facet normal -0.471300 -0.661699 -0.583122
outer loop
vertex -0.425323 -0.850654 -0.309011
vertex -0.723607 -0.447220 -0.525725
vertex -0.262869 -0.525738 -0.809012
endloop
endfacet
endsolid Exported from Blender-3.2.0
