solid Exported from Blender-3.2.0
facet normal 0.000000 1.000000 0.000000
outer loop
vertex 0.326013 0.326013 -0.326013
vertex 0.326013 0.326013 0.326013
vertex 3.326013 0.326013 0.326013
endloop
endfacet
facet normal 0.000000 1.000000 0.000000
outer loop
vertex 0.326013 0.326013 -0.326013
vertex 3.326013 0.326013 0.326013
vertex 3.326013 0.326013 -0.326013
endloop
endfacet
facet normal -1.000000 0.000000 0.000000
outer loop
vertex -0.326013 0.326013 0.326013
vertex -0.326013 -0.326013 -0.326013
vertex -0.326013 -0.326013 3.326013
endloop
endfacet
facet normal -1.000000 0.000000 0.000000
outer loop
vertex -0.326013 0.326013 0.326013
vertex -0.326013 -0.326013 3.326013
vertex -0.326013 0.326013 3.326013
endloop
endfacet
facet normal -1.000000 0.000000 0.000000
outer loop
vertex -0.326013 -0.326013 -0.326013
vertex -0.326013 0.326013 0.326013
vertex -0.326013 3.326013 0.326013
endloop
endfacet
facet normal -1.000000 0.000000 0.000000
outer loop
vertex -0.326013 -0.326013 -0.326013
vertex -0.326013 3.326013 0.326013
vertex -0.326013 3.326013 -0.326013
endloop
endfacet
facet normal 0.000000 0.000000 1.000000
outer loop
vertex 0.326013 -0.326013 3.326013
vertex 0.326013 0.326013 3.326013
vertex -0.326013 0.326013 3.326013
endloop
endfacet
facet normal 0.000000 0.000000 1.000000
outer loop
vertex 0.326013 -0.326013 3.326013
vertex -0.326013 0.326013 3.326013
vertex -0.326013 -0.326013 3.326013
endloop
endfacet
facet normal 0.000000 -1.000000 0.000000
outer loop
vertex -0.326013 -0.326013 -0.326013
vertex 0.326013 -0.326013 0.326013
vertex 0.326013 -0.326013 3.326013
endloop
endfacet
facet normal 0.000000 -1.000000 0.000000
outer loop
vertex -0.326013 -0.326013 -0.326013
vertex 0.326013 -0.326013 3.326013
vertex -0.326013 -0.326013 3.326013
endloop
endfacet
facet normal 0.000000 1.000000 0.000000
outer loop
vertex 0.326013 0.326013 0.326013
vertex -0.326013 0.326013 0.326013
vertex -0.326013 0.326013 3.326013
endloop
endfacet
facet normal 0.000000 1.000000 0.000000
outer loop
vertex 0.326013 0.326013 0.326013
vertex -0.326013 0.326013 3.326013
vertex 0.326013 0.326013 3.326013
endloop
endfacet
facet normal 1.000000 0.000000 0.000000
outer loop
vertex 0.326013 -0.326013 0.326013
vertex 0.326013 0.326013 0.326013
vertex 0.326013 0.326013 3.326013
endloop
endfacet
facet normal 1.000000 0.000000 0.000000
outer loop
vertex 0.326013 -0.326013 0.326013
vertex 0.326013 0.326013 3.326013
vertex 0.326013 -0.326013 3.326013
endloop
endfacet
facet normal 1.000000 0.000000 0.000000
outer loop
vertex 3.326013 -0.326013 -0.326013
vertex 3.326013 0.326013 -0.326013
vertex 3.326013 0.326013 0.326013
endloop
endfacet
facet normal 1.000000 0.000000 0.000000
outer loop
vertex 3.326013 -0.326013 -0.326013
vertex 3.326013 0.326013 0.326013
vertex 3.326013 -0.326013 0.326013
endloop
endfacet
facet normal 0.000000 -1.000000 0.000000
outer loop
vertex 0.326013 -0.326013 0.326013
vertex -0.326013 -0.326013 -0.326013
vertex 3.326013 -0.326013 -0.326013
endloop
endfacet
facet normal 0.000000 -1.000000 0.000000
outer loop
vertex 0.326013 -0.326013 0.326013
vertex 3.326013 -0.326013 -0.326013
vertex 3.326013 -0.326013 0.326013
endloop
endfacet
facet normal 0.000000 0.000000 1.000000
outer loop
vertex 0.326013 0.326013 0.326013
vertex 0.326013 -0.326013 0.326013
vertex 3.326013 -0.326013 0.326013
endloop
endfacet
facet normal 0.000000 0.000000 1.000000
outer loop
vertex 0.326013 0.326013 0.326013
vertex 3.326013 -0.326013 0.326013
vertex 3.326013 0.326013 0.326013
endloop
endfacet
facet normal 0.000000 0.000000 -1.000000
outer loop
vertex -0.326013 -0.326013 -0.326013
vertex 0.326013 0.326013 -0.326013
vertex 3.326013 0.326013 -0.326013
endloop
endfacet
facet normal 0.000000 0.000000 -1.000000
outer loop
vertex -0.326013 -0.326013 -0.326013
vertex 3.326013 0.326013 -0.326013
vertex 3.326013 -0.326013 -0.326013
endloop
endfacet
facet normal 0.000000 1.000000 0.000000
outer loop
vertex -0.326013 3.326013 0.326013
vertex 0.326013 3.326013 0.326013
vertex 0.326013 3.326013 -0.326013
endloop
endfacet
facet normal 0.000000 1.000000 0.000000
outer loop
vertex -0.326013 3.326013 0.326013
vertex 0.326013 3.326013 -0.326013
vertex -0.326013 3.326013 -0.326013
endloop
endfacet
facet normal 1.000000 0.000000 0.000000
outer loop
vertex 0.326013 0.326013 0.326013
vertex 0.326013 0.326013 -0.326013
vertex 0.326013 3.326013 -0.326013
endloop
endfacet
facet normal 1.000000 0.000000 0.000000
outer loop
vertex 0.326013 0.326013 0.326013
vertex 0.326013 3.326013 -0.326013
vertex 0.326013 3.326013 0.326013
endloop
endfacet
facet normal 0.000000 0.000000 -1.000000
outer loop
vertex 0.326013 0.326013 -0.326013
vertex -0.326013 -0.326013 -0.326013
vertex -0.326013 3.326013 -0.326013
endloop
endfacet
facet normal 0.000000 0.000000 -1.000000
outer loop
vertex 0.326013 0.326013 -0.326013
vertex -0.326013 3.326013 -0.326013
vertex 0.326013 3.326013 -0.326013
endloop
endfacet
facet normal 0.000000 0.000000 1.000000
outer loop
vertex -0.326013 0.326013 0.326013
vertex 0.326013 0.326013 0.326013
vertex 0.326013 3.326013 0.326013
endloop
endfacet
facet normal 0.000000 0.000000 1.000000
outer loop
vertex -0.326013 0.326013 0.326013
vertex 0.326013 3.326013 0.326013
vertex -0.326013 3.326013 0.326013
endloop
endfacet
facet normal 0.793117 0.000000 -0.609069
outer loop
vertex 4.076398 -0.053592 0.000000
vertex 4.076398 0.053592 0.000000
vertex 4.329220 0.053592 0.329220
endloop
endfacet
facet normal 0.793117 0.000000 -0.609069
outer loop
vertex 4.076398 -0.053592 0.000000
vertex 4.329220 0.053592 0.329220
vertex 4.329220 -0.053592 0.329220
endloop
endfacet
facet normal 0.000000 0.000000 1.000000
outer loop
vertex 3.835390 -0.053592 0.329220
vertex 3.835390 0.053592 0.329220
vertex 3.670780 0.053592 0.329220
endloop
endfacet
facet normal 0.000000 0.000000 1.000000
outer loop
vertex 3.835390 -0.053592 0.329220
vertex 3.670780 0.053592 0.329220
vertex 3.670780 -0.053592 0.329220
endloop
endfacet
facet normal -0.793117 0.000000 0.609069
outer loop
vertex 3.923602 -0.053592 0.000000
vertex 3.923602 0.053592 0.000000
vertex 3.670780 0.053592 -0.329220
endloop
endfacet
facet normal -0.793117 0.000000 0.609069
outer loop
vertex 3.923602 -0.053592 0.000000
vertex 3.670780 0.053592 -0.329220
vertex 3.670780 -0.053592 -0.329220
endloop
endfacet
facet normal 0.000000 0.000000 -1.000000
outer loop
vertex 4.164610 -0.053592 -0.329220
vertex 4.164610 0.053592 -0.329220
vertex 4.329220 0.053592 -0.329220
endloop
endfacet
facet normal 0.000000 0.000000 -1.000000
outer loop
vertex 4.164610 -0.053592 -0.329220
vertex 4.329220 0.053592 -0.329220
vertex 4.329220 -0.053592 -0.329220
endloop
endfacet
facet normal 0.000000 1.000000 -0.000000
outer loop
vertex 4.164610 0.053592 0.329220
vertex 4.329220 0.053592 0.329220
vertex 4.076398 0.053592 0.000000
endloop
endfacet
facet normal 0.000000 1.000000 0.000000
outer loop
vertex 4.164610 0.053592 0.329220
vertex 4.076398 0.053592 0.000000
vertex 4.000000 0.053592 0.081482
endloop
endfacet
facet normal 0.000000 -1.000000 0.000000
outer loop
vertex 3.923602 -0.053592 0.000000
vertex 3.670780 -0.053592 -0.329220
vertex 3.835390 -0.053592 -0.329220
endloop
endfacet
facet normal 0.000000 -1.000000 0.000000
outer loop
vertex 3.923602 -0.053592 0.000000
vertex 3.835390 -0.053592 -0.329220
vertex 4.000000 -0.053592 -0.098996
endloop
endfacet
facet normal 0.000000 1.000000 0.000000
outer loop
vertex 3.923602 0.053592 0.000000
vertex 4.000000 0.053592 -0.098996
vertex 3.835390 0.053592 -0.329220
endloop
endfacet
facet normal 0.000000 1.000000 0.000000
outer loop
vertex 3.923602 0.053592 0.000000
vertex 3.835390 0.053592 -0.329220
vertex 3.670780 0.053592 -0.329220
endloop
endfacet
facet normal 0.000000 -1.000000 -0.000000
outer loop
vertex 4.329220 -0.053592 0.329220
vertex 4.164610 -0.053592 0.329220
vertex 4.000000 -0.053592 0.081482
endloop
endfacet
facet normal 0.000000 -1.000000 0.000000
outer loop
vertex 4.329220 -0.053592 0.329220
vertex 4.000000 -0.053592 0.081482
vertex 4.076398 -0.053592 0.000000
endloop
endfacet
facet normal 0.000000 1.000000 -0.000000
outer loop
vertex 4.000000 0.053592 -0.098996
vertex 4.076398 0.053592 0.000000
vertex 4.329220 0.053592 -0.329220
endloop
endfacet
facet normal 0.000000 1.000000 0.000000
outer loop
vertex 4.000000 0.053592 -0.098996
vertex 4.329220 0.053592 -0.329220
vertex 4.164610 0.053592 -0.329220
endloop
endfacet
facet normal 0.000000 0.000000 -1.000000
outer loop
vertex 3.670780 -0.053592 -0.329220
vertex 3.670780 0.053592 -0.329220
vertex 3.835390 0.053592 -0.329220
endloop
endfacet
facet normal 0.000000 0.000000 -1.000000
outer loop
vertex 3.670780 -0.053592 -0.329220
vertex 3.835390 0.053592 -0.329220
vertex 3.835390 -0.053592 -0.329220
endloop
endfacet
facet normal 0.813459 0.000000 -0.581622
outer loop
vertex 3.835390 -0.053592 -0.329220
vertex 3.835390 0.053592 -0.329220
vertex 4.000000 0.053592 -0.098996
endloop
endfacet
facet normal 0.813459 0.000000 -0.581622
outer loop
vertex 3.835390 -0.053592 -0.329220
vertex 4.000000 0.053592 -0.098996
vertex 4.000000 -0.053592 -0.098996
endloop
endfacet
facet normal -0.813459 0.000000 -0.581622
outer loop
vertex 4.000000 -0.053592 -0.098996
vertex 4.000000 0.053592 -0.098996
vertex 4.164610 0.053592 -0.329220
endloop
endfacet
facet normal -0.813459 0.000000 -0.581623
outer loop
vertex 4.000000 -0.053592 -0.098996
vertex 4.164610 0.053592 -0.329220
vertex 4.164610 -0.053592 -0.329220
endloop
endfacet
facet normal 0.000000 0.000000 1.000000
outer loop
vertex 4.329220 -0.053592 0.329220
vertex 4.329220 0.053592 0.329220
vertex 4.164610 0.053592 0.329220
endloop
endfacet
facet normal 0.000000 0.000000 1.000000
outer loop
vertex 4.329220 -0.053592 0.329220
vertex 4.164610 0.053592 0.329220
vertex 4.164610 -0.053592 0.329220
endloop
endfacet
facet normal -0.832900 0.000000 0.553423
outer loop
vertex 4.164610 -0.053592 0.329220
vertex 4.164610 0.053592 0.329220
vertex 4.000000 0.053592 0.081482
endloop
endfacet
facet normal -0.832900 0.000000 0.553423
outer loop
vertex 4.164610 -0.053592 0.329220
vertex 4.000000 0.053592 0.081482
vertex 4.000000 -0.053592 0.081482
endloop
endfacet
facet normal 0.832901 0.000000 0.553423
outer loop
vertex 4.000000 -0.053592 0.081482
vertex 4.000000 0.053592 0.081482
vertex 3.835390 0.053592 0.329220
endloop
endfacet
facet normal 0.832901 0.000000 0.553423
outer loop
vertex 4.000000 -0.053592 0.081482
vertex 3.835390 0.053592 0.329220
vertex 3.835390 -0.053592 0.329220
endloop
endfacet
facet normal 0.000000 -1.000000 0.000000
outer loop
vertex 4.076398 -0.053592 0.000000
vertex 4.000000 -0.053592 0.081482
vertex 3.923602 -0.053592 0.000000
endloop
endfacet
facet normal 0.000000 -1.000000 -0.000000
outer loop
vertex 4.076398 -0.053592 0.000000
vertex 3.923602 -0.053592 0.000000
vertex 4.000000 -0.053592 -0.098996
endloop
endfacet
facet normal 0.000000 -1.000000 0.000000
outer loop
vertex 4.000000 -0.053592 -0.098996
vertex 4.164610 -0.053592 -0.329220
vertex 4.329220 -0.053592 -0.329220
endloop
endfacet
facet normal 0.000000 -1.000000 -0.000000
outer loop
vertex 4.000000 -0.053592 -0.098996
vertex 4.329220 -0.053592 -0.329220
vertex 4.076398 -0.053592 0.000000
endloop
endfacet
facet normal 0.000000 1.000000 0.000000
outer loop
vertex 4.000000 0.053592 0.081482
vertex 4.076398 0.053592 0.000000
vertex 4.000000 0.053592 -0.098996
endloop
endfacet
facet normal 0.000000 1.000000 0.000000
outer loop
vertex 4.000000 0.053592 0.081482
vertex 4.000000 0.053592 -0.098996
vertex 3.923602 0.053592 0.000000
endloop
endfacet
facet normal 0.000000 -1.000000 0.000000
outer loop
vertex 3.835390 -0.053592 0.329220
vertex 3.670780 -0.053592 0.329220
vertex 3.923602 -0.053592 0.000000
endloop
endfacet
facet normal 0.000000 -1.000000 0.000000
outer loop
vertex 3.835390 -0.053592 0.329220
vertex 3.923602 -0.053592 0.000000
vertex 4.000000 -0.053592 0.081482
endloop
endfacet
facet normal -0.793117 0.000000 -0.609069
outer loop
vertex 3.670780 -0.053592 0.329220
vertex 3.670780 0.053592 0.329220
vertex 3.923602 0.053592 0.000000
endloop
endfacet
facet normal -0.793117 0.000000 -0.609069
outer loop
vertex 3.670780 -0.053592 0.329220
vertex 3.923602 0.053592 0.000000
vertex 3.923602 -0.053592 0.000000
endloop
endfacet
facet normal 0.793117 0.000000 0.609069
outer loop
vertex 4.329220 -0.053592 -0.329220
vertex 4.329220 0.053592 -0.329220
vertex 4.076398 0.053592 0.000000
endloop
endfacet
facet normal 0.793117 0.000000 0.609069
outer loop
vertex 4.329220 -0.053592 -0.329220
vertex 4.076398 0.053592 0.000000
vertex 4.076398 -0.053592 0.000000
endloop
endfacet
facet normal 0.000000 1.000000 0.000000
outer loop
vertex 3.670780 0.053592 0.329220
vertex 3.835390 0.053592 0.329220
vertex 4.000000 0.053592 0.081482
endloop
endfacet
facet normal 0.000000 1.000000 0.000000
outer loop
vertex 3.670780 0.053592 0.329220
vertex 4.000000 0.053592 0.081482
vertex 3.923602 0.053592 0.000000
endloop
endfacet
facet normal 1.000000 0.000000 0.000000
outer loop
vertex 0.082635 4.101929 0.165394
vertex 0.082635 4.330787 0.165394
vertex 0.082635 4.330787 0.330787
endloop
endfacet
facet normal 1.000000 0.000000 0.000000
outer loop
vertex 0.082635 4.101929 0.165394
vertex 0.082635 4.330787 0.330787
vertex 0.082635 4.101929 0.330787
endloop
endfacet
facet normal 0.000000 0.000000 1.000000
outer loop
vertex 0.082635 4.101929 0.330787
vertex 0.082635 4.330787 0.330787
vertex -0.082635 4.330787 0.330787
endloop
endfacet
facet normal 0.000000 0.000000 1.000000
outer loop
vertex 0.082635 4.101929 0.330787
vertex -0.082635 4.330787 0.330787
vertex -0.082635 4.101929 0.330787
endloop
endfacet
facet normal 0.000000 -1.000000 0.000000
outer loop
vertex 0.082635 3.669213 -0.165394
vertex -0.082635 3.669213 -0.165394
vertex -0.082635 3.669213 -0.330787
endloop
endfacet
facet normal 0.000000 -1.000000 0.000000
outer loop
vertex 0.082635 3.669213 -0.165394
vertex -0.082635 3.669213 -0.330787
vertex 0.082635 3.669213 -0.330787
endloop
endfacet
facet normal 0.000000 1.000000 0.000000
outer loop
vertex -0.082635 4.330787 -0.165394
vertex 0.082635 4.330787 -0.165394
vertex 0.082635 4.330787 -0.330787
endloop
endfacet
facet normal 0.000000 1.000000 0.000000
outer loop
vertex -0.082635 4.330787 -0.165394
vertex 0.082635 4.330787 -0.330787
vertex -0.082635 4.330787 -0.330787
endloop
endfacet
facet normal 0.000000 1.000000 0.000000
outer loop
vertex -0.082635 4.330787 0.330787
vertex 0.082635 4.330787 0.330787
vertex 0.082635 4.330787 0.165394
endloop
endfacet
facet normal 0.000000 1.000000 0.000000
outer loop
vertex -0.082635 4.330787 0.330787
vertex 0.082635 4.330787 0.165394
vertex -0.082635 4.330787 0.165394
endloop
endfacet
facet normal 0.000000 -1.000000 0.000000
outer loop
vertex 0.082635 3.669213 0.330787
vertex -0.082635 3.669213 0.330787
vertex -0.082635 3.669213 0.165394
endloop
endfacet
facet normal 0.000000 -1.000000 0.000000
outer loop
vertex 0.082635 3.669213 0.330787
vertex -0.082635 3.669213 0.165394
vertex 0.082635 3.669213 0.165394
endloop
endfacet
facet normal -1.000000 0.000000 0.000000
outer loop
vertex -0.082635 4.101929 0.330787
vertex -0.082635 4.330787 0.330787
vertex -0.082635 4.330787 0.165394
endloop
endfacet
facet normal -1.000000 0.000000 0.000000
outer loop
vertex -0.082635 4.101929 0.330787
vertex -0.082635 4.330787 0.165394
vertex -0.082635 4.101929 0.165394
endloop
endfacet
facet normal 1.000000 0.000000 0.000000
outer loop
vertex 0.082635 3.669213 -0.165394
vertex 0.082635 3.901768 -0.165394
vertex 0.082635 4.330787 0.165394
endloop
endfacet
facet normal 1.000000 0.000000 0.000000
outer loop
vertex 0.082635 3.669213 -0.165394
vertex 0.082635 4.330787 0.165394
vertex 0.082635 4.101929 0.165394
endloop
endfacet
facet normal 1.000000 0.000000 0.000000
outer loop
vertex 0.082635 3.669213 -0.330787
vertex 0.082635 3.901768 -0.330787
vertex 0.082635 3.901768 -0.165394
endloop
endfacet
facet normal 1.000000 0.000000 0.000000
outer loop
vertex 0.082635 3.669213 -0.330787
vertex 0.082635 3.901768 -0.165394
vertex 0.082635 3.669213 -0.165394
endloop
endfacet
facet normal 1.000000 0.000000 0.000000
outer loop
vertex 0.082635 3.901768 -0.330787
vertex 0.082635 4.330787 -0.330787
vertex 0.082635 4.330787 -0.165394
endloop
endfacet
facet normal 1.000000 0.000000 0.000000
outer loop
vertex 0.082635 3.901768 -0.330787
vertex 0.082635 4.330787 -0.165394
vertex 0.082635 3.901768 -0.165394
endloop
endfacet
facet normal -1.000000 0.000000 0.000000
outer loop
vertex -0.082635 3.669213 0.330787
vertex -0.082635 4.101929 0.330787
vertex -0.082635 4.101929 0.165394
endloop
endfacet
facet normal -1.000000 0.000000 0.000000
outer loop
vertex -0.082635 3.669213 0.330787
vertex -0.082635 4.101929 0.165394
vertex -0.082635 3.669213 0.165394
endloop
endfacet
facet normal 0.000000 0.000000 -1.000000
outer loop
vertex -0.082635 3.669213 -0.330787
vertex -0.082635 3.901768 -0.330787
vertex 0.082635 3.901768 -0.330787
endloop
endfacet
facet normal 0.000000 0.000000 -1.000000
outer loop
vertex -0.082635 3.669213 -0.330787
vertex 0.082635 3.901768 -0.330787
vertex 0.082635 3.669213 -0.330787
endloop
endfacet
facet normal 0.000000 0.000000 -1.000000
outer loop
vertex -0.082635 3.901768 -0.330787
vertex -0.082635 4.330787 -0.330787
vertex 0.082635 4.330787 -0.330787
endloop
endfacet
facet normal 0.000000 0.000000 -1.000000
outer loop
vertex -0.082635 3.901768 -0.330787
vertex 0.082635 4.330787 -0.330787
vertex 0.082635 3.901768 -0.330787
endloop
endfacet
facet normal -1.000000 0.000000 0.000000
outer loop
vertex -0.082635 3.669213 -0.165394
vertex -0.082635 3.901768 -0.165394
vertex -0.082635 3.901768 -0.330787
endloop
endfacet
facet normal -1.000000 0.000000 0.000000
outer loop
vertex -0.082635 3.669213 -0.165394
vertex -0.082635 3.901768 -0.330787
vertex -0.082635 3.669213 -0.330787
endloop
endfacet
facet normal -1.000000 0.000000 0.000000
outer loop
vertex -0.082635 3.901768 -0.165394
vertex -0.082635 4.330787 -0.165394
vertex -0.082635 4.330787 -0.330787
endloop
endfacet
facet normal -1.000000 0.000000 0.000000
outer loop
vertex -0.082635 3.901768 -0.165394
vertex -0.082635 4.330787 -0.330787
vertex -0.082635 3.901768 -0.330787
endloop
endfacet
facet normal 0.000000 0.000000 1.000000
outer loop
vertex 0.082635 3.669213 0.330787
vertex 0.082635 4.101929 0.330787
vertex -0.082635 4.101929 0.330787
endloop
endfacet
facet normal 0.000000 0.000000 1.000000
outer loop
vertex 0.082635 3.669213 0.330787
vertex -0.082635 4.101929 0.330787
vertex -0.082635 3.669213 0.330787
endloop
endfacet
facet normal 1.000000 0.000000 0.000000
outer loop
vertex 0.082635 3.669213 0.165394
vertex 0.082635 4.101929 0.165394
vertex 0.082635 4.101929 0.330787
endloop
endfacet
facet normal 1.000000 0.000000 0.000000
outer loop
vertex 0.082635 3.669213 0.165394
vertex 0.082635 4.101929 0.330787
vertex 0.082635 3.669213 0.330787
endloop
endfacet
facet normal 0.000000 0.610606 -0.791935
outer loop
vertex 0.082635 4.330787 0.165394
vertex 0.082635 3.901768 -0.165394
vertex -0.082635 3.901768 -0.165394
endloop
endfacet
facet normal 0.000000 0.610607 -0.791934
outer loop
vertex 0.082635 4.330787 0.165394
vertex -0.082635 3.901768 -0.165394
vertex -0.082635 4.330787 0.165394
endloop
endfacet
facet normal -1.000000 0.000000 0.000000
outer loop
vertex -0.082635 3.669213 -0.165394
vertex -0.082635 4.101929 0.165394
vertex -0.082635 4.330787 0.165394
endloop
endfacet
facet normal -1.000000 0.000000 0.000000
outer loop
vertex -0.082635 3.669213 -0.165394
vertex -0.082635 4.330787 0.165394
vertex -0.082635 3.901768 -0.165394
endloop
endfacet
facet normal 0.000000 -0.607319 0.794458
outer loop
vertex 0.082635 3.669213 -0.165394
vertex 0.082635 4.101929 0.165394
vertex -0.082635 4.101929 0.165394
endloop
endfacet
facet normal 0.000000 -0.607319 0.794458
outer loop
vertex 0.082635 3.669213 -0.165394
vertex -0.082635 4.101929 0.165394
vertex -0.082635 3.669213 -0.165394
endloop
endfacet
facet normal 0.000000 0.000000 -1.000000
outer loop
vertex -0.082635 3.669213 0.165394
vertex -0.082635 4.101929 0.165394
vertex 0.082635 4.101929 0.165394
endloop
endfacet
facet normal 0.000000 0.000000 -1.000000
outer loop
vertex -0.082635 3.669213 0.165394
vertex 0.082635 4.101929 0.165394
vertex 0.082635 3.669213 0.165394
endloop
endfacet
facet normal 0.000000 0.000000 1.000000
outer loop
vertex -0.082635 3.901768 -0.165394
vertex 0.082635 3.901768 -0.165394
vertex 0.082635 4.330787 -0.165394
endloop
endfacet
facet normal 0.000000 0.000000 1.000000
outer loop
vertex -0.082635 3.901768 -0.165394
vertex 0.082635 4.330787 -0.165394
vertex -0.082635 4.330787 -0.165394
endloop
endfacet
facet normal 0.814717 0.000000 -0.579858
outer loop
vertex 0.061726 -0.061726 4.031804
vertex 0.061726 0.061726 4.031804
vertex 0.341451 0.061726 4.424825
endloop
endfacet
facet normal 0.814717 0.000000 -0.579859
outer loop
vertex 0.061726 -0.061726 4.031804
vertex 0.341451 0.061726 4.424825
vertex 0.341451 -0.061726 4.424825
endloop
endfacet
facet normal 0.000000 0.000000 1.000000
outer loop
vertex -0.214627 -0.070246 4.424825
vertex -0.214627 0.070246 4.424825
vertex -0.343581 0.070246 4.424825
endloop
endfacet
facet normal 0.000000 0.000000 1.000000
outer loop
vertex -0.214627 -0.070246 4.424825
vertex -0.343581 0.070246 4.424825
vertex -0.343581 -0.070246 4.424825
endloop
endfacet
facet normal -1.000000 0.000000 0.000000
outer loop
vertex -0.061726 -0.061726 4.031804
vertex -0.061726 0.061726 4.031804
vertex -0.061726 0.061726 3.409660
endloop
endfacet
facet normal -1.000000 0.000000 0.000000
outer loop
vertex -0.061726 -0.061726 4.031804
vertex -0.061726 0.061726 3.409660
vertex -0.061726 -0.061726 3.409660
endloop
endfacet
facet normal 0.000000 0.000000 -1.000000
outer loop
vertex 0.000000 -0.061726 3.409660
vertex 0.000000 0.061726 3.409660
vertex 0.061726 0.061726 3.409660
endloop
endfacet
facet normal 0.000000 0.000000 -1.000000
outer loop
vertex 0.000000 -0.061726 3.409660
vertex 0.061726 0.061726 3.409660
vertex 0.061726 -0.061726 3.409660
endloop
endfacet
facet normal 0.000000 -1.000000 0.000000
outer loop
vertex 0.000000 -0.061726 4.132706
vertex -0.061726 -0.061726 4.031804
vertex -0.061726 -0.061726 3.409660
endloop
endfacet
facet normal 0.000000 -1.000000 0.000000
outer loop
vertex 0.000000 -0.061726 4.132706
vertex -0.061726 -0.061726 3.409660
vertex 0.000000 -0.061726 3.409660
endloop
endfacet
facet normal 0.000000 1.000000 0.000000
outer loop
vertex 0.000000 0.061726 4.132706
vertex 0.061726 0.061726 4.031804
vertex 0.061726 0.061726 3.409660
endloop
endfacet
facet normal 0.000000 1.000000 0.000000
outer loop
vertex 0.000000 0.061726 4.132706
vertex 0.061726 0.061726 3.409660
vertex 0.000000 0.061726 3.409660
endloop
endfacet
facet normal 0.000000 1.000000 0.000000
outer loop
vertex -0.061726 0.061726 4.031804
vertex 0.000000 0.061726 4.132706
vertex 0.000000 0.061726 3.409660
endloop
endfacet
facet normal 0.000000 1.000000 0.000000
outer loop
vertex -0.061726 0.061726 4.031804
vertex 0.000000 0.061726 3.409660
vertex -0.061726 0.061726 3.409660
endloop
endfacet
facet normal 0.000000 -1.000000 0.000000
outer loop
vertex 0.061726 -0.061726 4.031804
vertex 0.000000 -0.061726 4.132706
vertex 0.000000 -0.061726 3.409660
endloop
endfacet
facet normal 0.000000 -1.000000 0.000000
outer loop
vertex 0.061726 -0.061726 4.031804
vertex 0.000000 -0.061726 3.409660
vertex 0.061726 -0.061726 3.409660
endloop
endfacet
facet normal 0.000000 0.000000 -1.000000
outer loop
vertex -0.061726 -0.061726 3.409660
vertex -0.061726 0.061726 3.409660
vertex 0.000000 0.061726 3.409660
endloop
endfacet
facet normal 0.000000 0.000000 -1.000000
outer loop
vertex -0.061726 -0.061726 3.409660
vertex 0.000000 0.061726 3.409660
vertex 0.000000 -0.061726 3.409660
endloop
endfacet
facet normal 0.000000 0.000000 1.000000
outer loop
vertex 0.341451 -0.061726 4.424825
vertex 0.341451 0.061726 4.424825
vertex 0.216757 0.061726 4.424825
endloop
endfacet
facet normal 0.000000 0.000000 1.000000
outer loop
vertex 0.341451 -0.061726 4.424825
vertex 0.216757 0.061726 4.424825
vertex 0.216757 -0.061726 4.424825
endloop
endfacet
facet normal -0.803068 0.000000 0.595888
outer loop
vertex 0.216757 -0.061726 4.424825
vertex 0.216757 0.061726 4.424825
vertex 0.000000 0.061726 4.132706
endloop
endfacet
facet normal -0.803067 0.000000 0.595889
outer loop
vertex 0.216757 -0.061726 4.424825
vertex 0.000000 0.061726 4.132706
vertex 0.000000 -0.061726 4.132706
endloop
endfacet
facet normal 0.805870 0.000000 0.592093
outer loop
vertex 0.000000 -0.061726 4.132706
vertex 0.000000 0.061726 4.132706
vertex -0.214627 0.070246 4.424825
endloop
endfacet
facet normal 0.805870 0.000000 0.592092
outer loop
vertex 0.000000 -0.061726 4.132706
vertex -0.214627 0.070246 4.424825
vertex -0.214627 -0.070246 4.424825
endloop
endfacet
facet normal 0.000000 -1.000000 0.000000
outer loop
vertex 0.341451 -0.061726 4.424825
vertex 0.216757 -0.061726 4.424825
vertex 0.000000 -0.061726 4.132706
endloop
endfacet
facet normal 0.000000 -1.000000 0.000000
outer loop
vertex 0.341451 -0.061726 4.424825
vertex 0.000000 -0.061726 4.132706
vertex 0.061726 -0.061726 4.031804
endloop
endfacet
facet normal 0.000000 -0.999765 -0.021673
outer loop
vertex -0.214627 -0.070246 4.424825
vertex -0.343581 -0.070246 4.424825
vertex -0.061726 -0.061726 4.031804
endloop
endfacet
facet normal 0.021655 -0.999678 -0.013247
outer loop
vertex -0.214627 -0.070246 4.424825
vertex -0.061726 -0.061726 4.031804
vertex 0.000000 -0.061726 4.132706
endloop
endfacet
facet normal -0.812631 0.000000 -0.582779
outer loop
vertex -0.343581 -0.070246 4.424825
vertex -0.343581 0.070246 4.424825
vertex -0.061726 0.061726 4.031804
endloop
endfacet
facet normal -0.812631 0.000000 -0.582778
outer loop
vertex -0.343581 -0.070246 4.424825
vertex -0.061726 0.061726 4.031804
vertex -0.061726 -0.061726 4.031804
endloop
endfacet
facet normal 1.000000 0.000000 0.000000
outer loop
vertex 0.061726 -0.061726 3.409660
vertex 0.061726 0.061726 3.409660
vertex 0.061726 0.061726 4.031804
endloop
endfacet
facet normal 1.000000 0.000000 0.000000
outer loop
vertex 0.061726 -0.061726 3.409660
vertex 0.061726 0.061726 4.031804
vertex 0.061726 -0.061726 4.031804
endloop
endfacet
facet normal 0.000000 0.999575 -0.029154
outer loop
vertex -0.343581 0.070246 4.424825
vertex -0.214627 0.070246 4.424825
vertex 0.000000 0.061726 4.132706
endloop
endfacet
facet normal 0.016310 0.999817 -0.009978
outer loop
vertex -0.343581 0.070246 4.424825
vertex 0.000000 0.061726 4.132706
vertex -0.061726 0.061726 4.031804
endloop
endfacet
facet normal 0.000000 1.000000 -0.000000
outer loop
vertex 0.000000 0.061726 4.132706
vertex 0.216757 0.061726 4.424825
vertex 0.341451 0.061726 4.424825
endloop
endfacet
facet normal 0.000000 1.000000 0.000000
outer loop
vertex 0.000000 0.061726 4.132706
vertex 0.341451 0.061726 4.424825
vertex 0.061726 0.061726 4.031804
endloop
endfacet
endsolid Exported from Blender-3.2.0
